<svg width="1916" height="1140" viewBox="0 0 1916 1140" fill="none" xmlns="http://www.w3.org/2000/svg">
<path d="M1134.79 289.997L1211 378.377L894 452.997" stroke="#202027" stroke-linecap="round"/>
<path d="M1601.68 348.403C1611.11 351.028 1873.52 461.961 1873.52 461.961L1595.11 491.845L1770.99 717.657L1523.04 563.409L1497.77 824.853L1427.88 549.527L1194.94 680.49L1355.41 488.263L1070.63 475.286L1338.3 395.023L1139.4 165.956L1419.04 297.5L1483.03 43.6869L1511.77 298.045L1766.48 122.599L1601.68 348.403Z" fill="#BCEC30" stroke="#202027" stroke-miterlimit="10" stroke-linecap="round"/>
<path d="M1125.08 553.997H1249L1107 732.997" stroke="#202027" stroke-linecap="round"/>
<path d="M1265 758.042L1378.76 678.997L1484.88 1097" stroke="#202027" stroke-linecap="round"/>
<path d="M1343.16 767.997L1287 826.762L1367 893.997L1343.16 767.997Z" fill="#BCEC30" stroke="#202027" stroke-linecap="round"/>
<path d="M1385 962.997L1419 1087" stroke="#202027" stroke-linecap="round"/>
<path d="M131.5 395.441L138.729 414.976L138.808 415.192L139.024 415.271L158.559 422.5L139.024 429.729L138.808 429.808L138.729 430.024L131.5 449.559L124.271 430.024L124.192 429.808L123.976 429.729L104.441 422.5L123.976 415.271L124.192 415.192L124.271 414.976L131.5 395.441Z" fill="#BCEC30" stroke="#202027"/>
<path d="M1094.5 869.441L1105.24 898.465L1105.32 898.68L1105.54 898.76L1134.56 909.5L1105.54 920.24L1105.32 920.32L1105.24 920.535L1094.5 949.559L1083.76 920.535L1083.68 920.32L1083.46 920.24L1054.44 909.5L1083.46 898.76L1083.68 898.68L1083.76 898.465L1094.5 869.441Z" stroke="#202027"/>
<path d="M213.5 370.441L217.758 381.947L217.837 382.163L218.053 382.242L229.559 386.5L218.053 390.758L217.837 390.837L217.758 391.053L213.5 402.559L209.242 391.053L209.163 390.837L208.947 390.758L197.441 386.5L208.947 382.242L209.163 382.163L209.242 381.947L213.5 370.441Z" stroke="#202027"/>
<path d="M1006.5 839.441L1011.03 851.677L1011.11 851.892L1011.32 851.972L1023.56 856.5L1011.32 861.028L1011.11 861.108L1011.03 861.323L1006.5 873.559L1001.97 861.323L1001.89 861.108L1001.68 861.028L989.441 856.5L1001.68 851.972L1001.89 851.892L1001.97 851.677L1006.5 839.441Z" fill="#BCEC30" stroke="#202027"/>
</svg>
