<svg width="1440" height="800" viewBox="0 0 1440 800" fill="none" xmlns="http://www.w3.org/2000/svg">
<g clip-path="url(#clip0_18_2)">
<path d="M1094.79 -10.0032L1171 78.3767L854 152.997" stroke="#202027" stroke-linecap="round"/>
<path d="M1561.68 48.4028C1571.11 51.0277 1833.52 161.961 1833.52 161.961L1555.11 191.845L1730.99 417.657L1483.04 263.409L1457.77 524.853L1387.88 249.527L1154.94 380.49L1315.41 188.263L1030.63 175.286L1298.3 95.0234L1099.4 -134.044L1379.04 -2.49969L1443.03 -256.313L1471.77 -1.955L1726.48 -177.401L1561.68 48.4028Z" fill="#BCEC30" stroke="#202027" stroke-miterlimit="10" stroke-linecap="round"/>
<path d="M1085.08 253.997H1209L1067 432.997" stroke="#202027" stroke-linecap="round"/>
<path d="M1225 458.042L1338.76 378.997L1444.88 796.997" stroke="#202027" stroke-linecap="round"/>
<path d="M1303.16 467.997L1247 526.762L1327 593.997L1303.16 467.997Z" fill="#BCEC30" stroke="#202027" stroke-linecap="round"/>
<path d="M1345 662.997L1379 786.997" stroke="#202027" stroke-linecap="round"/>
<path d="M91.5 95.4408L98.7287 114.976L98.8084 115.192L99.0241 115.271L118.559 122.5L99.0241 129.729L98.8084 129.808L98.7287 130.024L91.5 149.559L84.2713 130.024L84.1916 129.808L83.9759 129.729L64.4408 122.5L83.9759 115.271L84.1916 115.192L84.2713 114.976L91.5 95.4408Z" fill="#BCEC30" stroke="#202027"/>
<path d="M1054.5 569.441L1065.24 598.465L1065.32 598.68L1065.54 598.76L1094.56 609.5L1065.54 620.24L1065.32 620.32L1065.24 620.535L1054.5 649.559L1043.76 620.535L1043.68 620.32L1043.46 620.24L1014.44 609.5L1043.46 598.76L1043.68 598.68L1043.76 598.465L1054.5 569.441Z" stroke="#202027"/>
<path d="M173.5 70.4408L177.758 81.9469L177.837 82.1626L178.053 82.2423L189.559 86.5L178.053 90.7577L177.837 90.8375L177.758 91.0531L173.5 102.559L169.242 91.0531L169.163 90.8375L168.947 90.7577L157.441 86.5L168.947 82.2423L169.163 82.1626L169.242 81.9469L173.5 70.4408Z" stroke="#202027"/>
<path d="M966.5 539.441L971.028 551.677L971.108 551.892L971.323 551.972L983.559 556.5L971.323 561.028L971.108 561.108L971.028 561.323L966.5 573.559L961.972 561.323L961.892 561.108L961.677 561.028L949.441 556.5L961.677 551.972L961.892 551.892L961.972 551.677L966.5 539.441Z" fill="#BCEC30" stroke="#202027"/>
</g>
<defs>
<clipPath id="clip0_18_2">
<rect width="1440" height="800" fill="white"/>
</clipPath>
</defs>
</svg>
