<svg width="1075" height="1132" viewBox="0 0 1075 1132" fill="none" xmlns="http://www.w3.org/2000/svg">
<path d="M241.79 324L318 412.38L1 487" stroke="#202027" stroke-linecap="round"/>
<path d="M708.68 382.406C718.11 385.031 980.52 495.965 980.52 495.965L702.11 525.848L877.99 751.661L630.04 597.413L604.77 858.856L534.88 583.531L301.94 714.493L462.41 522.266L177.63 509.289L445.3 429.027L246.4 199.959L526.04 331.504L590.03 77.6899L618.77 332.048L873.48 156.602L708.68 382.406Z" fill="#BCEC30" stroke="#202027" stroke-miterlimit="10" stroke-linecap="round"/>
<path d="M232.08 588H356L214 767" stroke="#202027" stroke-linecap="round"/>
<path d="M372 792.046L485.76 713L591.88 1131" stroke="#202027" stroke-linecap="round"/>
<path d="M450.16 802L394 860.765L474 928L450.16 802Z" fill="#BCEC30" stroke="#202027" stroke-linecap="round"/>
<path d="M492 997L526 1121" stroke="#202027" stroke-linecap="round"/>
<path d="M113.5 873.441L118.028 885.677L118.108 885.892L118.323 885.972L130.559 890.5L118.323 895.028L118.108 895.108L118.028 895.323L113.5 907.559L108.972 895.323L108.892 895.108L108.677 895.028L96.4409 890.5L108.677 885.972L108.892 885.892L108.972 885.677L113.5 873.441Z" fill="#BCEC30" stroke="#202027"/>
<path d="M201.5 903.441L212.24 932.465L212.32 932.68L212.54 932.76L241.56 943.5L212.54 954.24L212.32 954.32L212.24 954.535L201.5 983.559L190.76 954.535L190.68 954.32L190.46 954.24L161.44 943.5L190.46 932.76L190.68 932.68L190.76 932.465L201.5 903.441Z" stroke="#202027"/>
<path d="M241.793 323.997L318 412.377L1 486.997" stroke="#202027" stroke-linecap="round"/>
<path d="M708.682 382.403C718.111 385.028 980.516 495.961 980.516 495.961L702.111 525.845L877.994 751.657L630.036 597.409L604.772 858.853L534.884 583.527L301.938 714.49L462.405 522.263L177.63 509.286L445.302 429.023L246.404 199.956L526.036 331.5L590.031 77.6869L618.768 332.045L873.48 156.599L708.682 382.403Z" fill="#BCEC30" stroke="#202027" stroke-miterlimit="10" stroke-linecap="round"/>
<path d="M232.082 587.997H356L214 766.997" stroke="#202027" stroke-linecap="round"/>
<path d="M372 792.042L485.76 712.997L591.882 1131" stroke="#202027" stroke-linecap="round"/>
<path d="M450.159 801.997L394 860.761L474 927.997L450.159 801.997Z" fill="#BCEC30" stroke="#202027" stroke-linecap="round"/>
<path d="M492 996.997L526 1121" stroke="#202027" stroke-linecap="round"/>
<path d="M113.5 873.441L118.028 885.677L118.108 885.892L118.323 885.972L130.559 890.5L118.323 895.028L118.108 895.107L118.028 895.323L113.5 907.559L108.972 895.323L108.892 895.107L108.677 895.028L96.4408 890.5L108.677 885.972L108.892 885.892L108.972 885.677L113.5 873.441Z" fill="#BCEC30" stroke="#202027"/>
</svg>
